<?xml version="1.0" encoding="UTF-8"?>
<!DOCTYPE svg PUBLIC "-//W3C//DTD SVG 1.1//EN" "http://www.w3.org/Graphics/SVG/1.1/DTD/svg11.dtd">
<!-- Creator: CorelDRAW 2017 -->
<svg xmlns="http://www.w3.org/2000/svg" xml:space="preserve" width="22.7px" height="22px" version="1.1" style="shape-rendering:geometricPrecision; text-rendering:geometricPrecision; image-rendering:optimizeQuality; fill-rule:evenodd; clip-rule:evenodd"
viewBox="0 0 3734 3619"
 xmlns:xlink="http://www.w3.org/1999/xlink">
 <defs>
  <style type="text/css">
   <![CDATA[
    .fil0 {fill:#aaa6a0;fill-rule:nonzero}
   ]]>
  </style>
 </defs>
 <g id="Layer_x0020_1">
  <metadata id="CorelCorpID_0Corel-Layer"/>
  <g id="_1928167468640">
   <g>
    <path class="fil0" d="M3007 124l-69 0 0 0 0 -3 0 -3 0 -3 0 -3 -1 -3 -1 -3 -1 -3 -1 -3 -1 -2 -1 -2 -1 -2 -1 -2 -2 -2 -2 -2 -2 -2 -2 -2 -2 -2 -2 -2 -2 -2 -2 -2 -2 -1 -2 -1 -2 -1 -2 -1 -3 -1 -3 -1 -3 -1 -3 -1 -3 0 -3 0 -3 0 -3 0 0 -69 6 0 6 0 6 1 6 1 6 1 6 2 6 2 6 2 5 2 5 3 5 3 5 3 5 3 5 4 4 4 4 4 4 4 4 4 4 5 3 5 3 5 3 5 3 5 2 5 2 6 2 6 2 6 1 6 1 6 1 6 0 6 0 6 0 0zm-124 124l0 -69 0 0 3 0 3 0 3 0 3 0 3 -1 3 -1 3 -1 3 -1 2 -1 2 -1 2 -1 2 -1 2 -2 2 -2 2 -2 2 -2 2 -2 2 -2 2 -2 2 -2 1 -2 1 -2 1 -2 1 -2 1 -3 1 -3 1 -3 1 -3 0 -3 0 -3 0 -3 0 -3 69 0 0 6 0 6 -1 6 -1 6 -1 6 -2 6 -2 6 -2 6 -2 5 -3 5 -3 5 -3 5 -3 5 -4 5 -4 4 -4 4 -4 4 -4 4 -5 4 -5 3 -5 3 -5 3 -5 3 -5 2 -6 2 -6 2 -6 2 -6 1 -6 1 -6 1 -6 0 -6 0 0 0zm-124 -124l69 0 0 0 0 3 0 3 0 3 0 3 1 3 1 3 1 3 1 3 1 2 1 2 1 2 1 2 2 2 2 2 2 2 2 2 2 2 2 2 2 2 2 2 2 1 2 1 2 1 2 1 3 1 3 1 3 1 3 1 3 0 3 0 3 0 3 0 0 69 -6 0 -6 0 -6 -1 -6 -1 -6 -1 -6 -2 -6 -2 -6 -2 -5 -2 -5 -3 -5 -3 -5 -3 -5 -3 -5 -4 -4 -4 -4 -4 -4 -4 -4 -4 -4 -5 -3 -5 -3 -5 -3 -5 -3 -5 -2 -5 -2 -6 -2 -6 -2 -6 -1 -6 -1 -6 -1 -6 0 -6 0 -6 0 0zm124 -124l0 69 0 0 -3 0 -3 0 -3 0 -3 0 -3 1 -3 1 -3 1 -3 1 -2 1 -2 1 -2 1 -2 1 -2 2 -2 2 -2 2 -2 2 -2 2 -2 2 -2 2 -2 2 -1 2 -1 2 -1 2 -1 2 -1 3 -1 3 -1 3 -1 3 0 3 0 3 0 3 0 3 -69 0 0 -6 0 -6 1 -6 1 -6 1 -6 2 -6 2 -6 2 -6 2 -5 3 -5 3 -5 3 -5 3 -5 4 -5 4 -4 4 -4 4 -4 4 -4 5 -4 5 -3 5 -3 5 -3 5 -3 5 -2 6 -2 6 -2 6 -2 6 -1 6 -1 6 -1 6 0 6 0 0 0z"/>
   </g>
   <g>
    <path class="fil0" d="M727 3495l69 0 0 0 0 3 0 3 0 3 0 3 1 3 1 3 1 3 1 3 1 2 1 2 1 2 1 2 2 2 2 2 2 2 2 2 2 2 2 2 2 2 2 2 2 1 2 1 2 1 2 1 3 1 3 1 3 1 3 1 3 0 3 0 3 0 3 0 0 69 -6 0 -6 0 -6 -1 -6 -1 -6 -1 -6 -2 -6 -2 -6 -2 -5 -2 -5 -3 -5 -3 -5 -3 -5 -3 -5 -4 -4 -4 -4 -4 -4 -4 -4 -4 -4 -5 -3 -5 -3 -5 -3 -5 -3 -5 -2 -5 -2 -6 -2 -6 -2 -6 -1 -6 -1 -6 -1 -6 0 -6 0 -6 0 0zm124 -124l0 69 0 0 -3 0 -3 0 -3 0 -3 0 -3 1 -3 1 -3 1 -3 1 -2 1 -2 1 -2 1 -2 1 -2 2 -2 2 -2 2 -2 2 -2 2 -2 2 -2 2 -2 2 -1 2 -1 2 -1 2 -1 2 -1 3 -1 3 -1 3 -1 3 0 3 0 3 0 3 0 3 -69 0 0 -6 0 -6 1 -6 1 -6 1 -6 2 -6 2 -6 2 -6 2 -5 3 -5 3 -5 3 -5 3 -5 4 -5 4 -4 4 -4 4 -4 4 -4 5 -4 5 -3 5 -3 5 -3 5 -3 5 -2 6 -2 6 -2 6 -2 6 -1 6 -1 6 -1 6 0 6 0 0 0zm124 124l-69 0 0 0 0 -3 0 -3 0 -3 0 -3 -1 -3 -1 -3 -1 -3 -1 -3 -1 -2 -1 -2 -1 -2 -1 -2 -2 -2 -2 -2 -2 -2 -2 -2 -2 -2 -2 -2 -2 -2 -2 -2 -2 -1 -2 -1 -2 -1 -2 -1 -3 -1 -3 -1 -3 -1 -3 -1 -3 0 -3 0 -3 0 -3 0 0 -69 6 0 6 0 6 1 6 1 6 1 6 2 6 2 6 2 5 2 5 3 5 3 5 3 5 3 5 4 4 4 4 4 4 4 4 4 4 5 3 5 3 5 3 5 3 5 2 5 2 6 2 6 2 6 1 6 1 6 1 6 0 6 0 6 0 0zm-124 124l0 -69 0 0 3 0 3 0 3 0 3 0 3 -1 3 -1 3 -1 3 -1 2 -1 2 -1 2 -1 2 -1 2 -2 2 -2 2 -2 2 -2 2 -2 2 -2 2 -2 2 -2 1 -2 1 -2 1 -2 1 -2 1 -3 1 -3 1 -3 1 -3 0 -3 0 -3 0 -3 0 -3 69 0 0 6 0 6 -1 6 -1 6 -1 6 -2 6 -2 6 -2 6 -2 5 -3 5 -3 5 -3 5 -3 5 -4 5 -4 4 -4 4 -4 4 -4 4 -5 4 -5 3 -5 3 -5 3 -5 3 -5 2 -6 2 -6 2 -6 2 -6 1 -6 1 -6 1 -6 0 -6 0 0 0z"/>
   </g>
   <g>
    <path class="fil0" d="M2178 714l142 0 0 69 -142 0 -27 -55 27 -14zm-27 14l10 -14 17 0 -27 14zm-359 477l359 -477 55 41 -359 477 -55 0 0 -41zm0 41l-16 -21 16 -21 0 41zm880 1169l-880 -1169 55 -41 880 1169 0 41 -55 0zm55 -41l16 21 -16 21 0 -41zm-873 1088l818 -1088 55 41 -818 1088 -27 14 -27 -55zm55 41l-10 14 -17 0 27 -14zm-944 -55l917 0 0 69 -917 0 0 -69z"/>
   </g>
   <g>
    <path class="fil0" d="M1556 2905l-142 0 0 -69 142 0 27 55 -27 14zm27 -14l-10 14 -17 0 27 -14zm359 -477l-359 477 -55 -41 359 -477 55 0 0 41zm0 -41l16 21 -16 21 0 -41zm-880 -1169l880 1169 -55 41 -880 -1169 0 -41 55 0zm-55 41l-16 -21 16 -21 0 41zm873 -1088l-818 1088 -55 -41 818 -1088 27 -14 27 55zm-55 -41l10 -14 17 0 -27 14zm944 55l-917 0 0 -69 917 0 0 69z"/>
   </g>
   <g>
    <path class="fil0" d="M2009 417l517 0 0 69 -517 0 -27 -55 27 -14zm-27 14l10 -14 17 0 -27 14zm-582 773l582 -773 55 41 -582 773 -55 0 0 -41zm0 41l-16 -21 16 -21 0 41zm880 1169l-880 -1169 55 -41 880 1169 0 41 -55 0zm55 -41l16 21 -16 21 0 -41zm-637 773l582 -773 55 41 -582 773 -27 14 -27 -55zm55 41l-10 14 -17 0 27 -14zm-545 -55l517 0 0 69 -517 0 0 -69z"/>
   </g>
   <g>
    <path class="fil0" d="M2763 436l-69 0 0 0 0 -3 0 -3 0 -3 0 -3 -1 -3 -1 -3 -1 -3 -1 -3 -1 -2 -1 -2 -1 -2 -1 -2 -2 -2 -2 -2 -2 -2 -2 -2 -2 -2 -2 -2 -2 -2 -2 -2 -2 -1 -2 -1 -2 -1 -2 -1 -3 -1 -3 -1 -3 -1 -3 -1 -3 0 -3 0 -3 0 -3 0 0 -69 6 0 6 0 6 1 6 1 6 1 6 2 6 2 6 2 5 2 5 3 5 3 5 3 5 3 5 4 4 4 4 4 4 4 4 4 4 5 3 5 3 5 3 5 3 5 2 5 2 6 2 6 2 6 1 6 1 6 1 6 0 6 0 6 0 0zm-124 124l0 -69 0 0 3 0 3 0 3 0 3 0 3 -1 3 -1 3 -1 3 -1 2 -1 2 -1 2 -1 2 -1 2 -2 2 -2 2 -2 2 -2 2 -2 2 -2 2 -2 2 -2 1 -2 1 -2 1 -2 1 -2 1 -3 1 -3 1 -3 1 -3 0 -3 0 -3 0 -3 0 -3 69 0 0 6 0 6 -1 6 -1 6 -1 6 -2 6 -2 6 -2 6 -2 5 -3 5 -3 5 -3 5 -3 5 -4 5 -4 4 -4 4 -4 4 -4 4 -5 4 -5 3 -5 3 -5 3 -5 3 -5 2 -6 2 -6 2 -6 2 -6 1 -6 1 -6 1 -6 0 -6 0 0 0zm-124 -124l69 0 0 0 0 3 0 3 0 3 0 3 1 3 1 3 1 3 1 3 1 2 1 2 1 2 1 2 2 2 2 2 2 2 2 2 2 2 2 2 2 2 2 2 2 1 2 1 2 1 2 1 3 1 3 1 3 1 3 1 3 0 3 0 3 0 3 0 0 69 -6 0 -6 0 -6 -1 -6 -1 -6 -1 -6 -2 -6 -2 -6 -2 -5 -2 -5 -3 -5 -3 -5 -3 -5 -3 -5 -4 -4 -4 -4 -4 -4 -4 -4 -4 -4 -5 -3 -5 -3 -5 -3 -5 -3 -5 -2 -5 -2 -6 -2 -6 -2 -6 -1 -6 -1 -6 -1 -6 0 -6 0 -6 0 0zm124 -124l0 69 0 0 -3 0 -3 0 -3 0 -3 0 -3 1 -3 1 -3 1 -3 1 -2 1 -2 1 -2 1 -2 1 -2 2 -2 2 -2 2 -2 2 -2 2 -2 2 -2 2 -2 2 -1 2 -1 2 -1 2 -1 2 -1 3 -1 3 -1 3 -1 3 0 3 0 3 0 3 0 3 -69 0 0 -6 0 -6 1 -6 1 -6 1 -6 2 -6 2 -6 2 -6 2 -5 3 -5 3 -5 3 -5 3 -5 4 -5 4 -4 4 -4 4 -4 4 -4 5 -4 5 -3 5 -3 5 -3 5 -3 5 -2 6 -2 6 -2 6 -2 6 -1 6 -1 6 -1 6 0 6 0 0 0z"/>
   </g>
   <g>
    <path class="fil0" d="M971 3183l69 0 0 0 0 3 0 3 0 3 0 3 1 3 1 3 1 3 1 3 1 2 1 2 1 2 1 2 2 2 2 2 2 2 2 2 2 2 2 2 2 2 2 2 2 1 2 1 2 1 2 1 3 1 3 1 3 1 3 1 3 0 3 0 3 0 3 0 0 69 -6 0 -6 0 -6 -1 -6 -1 -6 -1 -6 -2 -6 -2 -6 -2 -5 -2 -5 -3 -5 -3 -5 -3 -5 -3 -5 -4 -4 -4 -4 -4 -4 -4 -4 -4 -4 -5 -3 -5 -3 -5 -3 -5 -3 -5 -2 -5 -2 -6 -2 -6 -2 -6 -1 -6 -1 -6 -1 -6 0 -6 0 -6 0 0zm124 -124l0 69 0 0 -3 0 -3 0 -3 0 -3 0 -3 1 -3 1 -3 1 -3 1 -2 1 -2 1 -2 1 -2 1 -2 2 -2 2 -2 2 -2 2 -2 2 -2 2 -2 2 -2 2 -1 2 -1 2 -1 2 -1 2 -1 3 -1 3 -1 3 -1 3 0 3 0 3 0 3 0 3 -69 0 0 -6 0 -6 1 -6 1 -6 1 -6 2 -6 2 -6 2 -6 2 -5 3 -5 3 -5 3 -5 3 -5 4 -5 4 -4 4 -4 4 -4 4 -4 5 -4 5 -3 5 -3 5 -3 5 -3 5 -2 6 -2 6 -2 6 -2 6 -1 6 -1 6 -1 6 0 6 0 0 0zm124 124l-69 0 0 0 0 -3 0 -3 0 -3 0 -3 -1 -3 -1 -3 -1 -3 -1 -3 -1 -2 -1 -2 -1 -2 -1 -2 -2 -2 -2 -2 -2 -2 -2 -2 -2 -2 -2 -2 -2 -2 -2 -2 -2 -1 -2 -1 -2 -1 -2 -1 -3 -1 -3 -1 -3 -1 -3 -1 -3 0 -3 0 -3 0 -3 0 0 -69 6 0 6 0 6 1 6 1 6 1 6 2 6 2 6 2 5 2 5 3 5 3 5 3 5 3 5 4 4 4 4 4 4 4 4 4 4 5 3 5 3 5 3 5 3 5 2 5 2 6 2 6 2 6 1 6 1 6 1 6 0 6 0 6 0 0zm-124 124l0 -69 0 0 3 0 3 0 3 0 3 0 3 -1 3 -1 3 -1 3 -1 2 -1 2 -1 2 -1 2 -1 2 -2 2 -2 2 -2 2 -2 2 -2 2 -2 2 -2 2 -2 1 -2 1 -2 1 -2 1 -2 1 -3 1 -3 1 -3 1 -3 0 -3 0 -3 0 -3 0 -3 69 0 0 6 0 6 -1 6 -1 6 -1 6 -2 6 -2 6 -2 6 -2 5 -3 5 -3 5 -3 5 -3 5 -4 5 -4 4 -4 4 -4 4 -4 4 -5 4 -5 3 -5 3 -5 3 -5 3 -5 2 -6 2 -6 2 -6 2 -6 1 -6 1 -6 1 -6 0 -6 0 0 0z"/>
   </g>
   <g>
    <path class="fil0" d="M2533 748l-69 0 0 0 0 -3 0 -3 0 -3 0 -3 -1 -3 -1 -3 -1 -3 -1 -3 -1 -2 -1 -2 -1 -2 -1 -2 -2 -2 -2 -2 -2 -2 -2 -2 -2 -2 -2 -2 -2 -2 -2 -2 -2 -1 -2 -1 -2 -1 -2 -1 -3 -1 -3 -1 -3 -1 -3 -1 -3 0 -3 0 -3 0 -3 0 0 -69 6 0 6 0 6 1 6 1 6 1 6 2 6 2 6 2 5 2 5 3 5 3 5 3 5 3 5 4 4 4 4 4 4 4 4 4 4 5 3 5 3 5 3 5 3 5 2 5 2 6 2 6 2 6 1 6 1 6 1 6 0 6 0 6 0 0zm-124 124l0 -69 0 0 3 0 3 0 3 0 3 0 3 -1 3 -1 3 -1 3 -1 2 -1 2 -1 2 -1 2 -1 2 -2 2 -2 2 -2 2 -2 2 -2 2 -2 2 -2 2 -2 1 -2 1 -2 1 -2 1 -2 1 -3 1 -3 1 -3 1 -3 0 -3 0 -3 0 -3 0 -3 69 0 0 6 0 6 -1 6 -1 6 -1 6 -2 6 -2 6 -2 6 -2 5 -3 5 -3 5 -3 5 -3 5 -4 5 -4 4 -4 4 -4 4 -4 4 -5 4 -5 3 -5 3 -5 3 -5 3 -5 2 -6 2 -6 2 -6 2 -6 1 -6 1 -6 1 -6 0 -6 0 0 0zm-124 -124l69 0 0 0 0 3 0 3 0 3 0 3 1 3 1 3 1 3 1 3 1 2 1 2 1 2 1 2 2 2 2 2 2 2 2 2 2 2 2 2 2 2 2 2 2 1 2 1 2 1 2 1 3 1 3 1 3 1 3 1 3 0 3 0 3 0 3 0 0 69 -6 0 -6 0 -6 -1 -6 -1 -6 -1 -6 -2 -6 -2 -6 -2 -5 -2 -5 -3 -5 -3 -5 -3 -5 -3 -5 -4 -4 -4 -4 -4 -4 -4 -4 -4 -4 -5 -3 -5 -3 -5 -3 -5 -3 -5 -2 -5 -2 -6 -2 -6 -2 -6 -1 -6 -1 -6 -1 -6 0 -6 0 -6 0 0zm124 -124l0 69 0 0 -3 0 -3 0 -3 0 -3 0 -3 1 -3 1 -3 1 -3 1 -2 1 -2 1 -2 1 -2 1 -2 2 -2 2 -2 2 -2 2 -2 2 -2 2 -2 2 -2 2 -1 2 -1 2 -1 2 -1 2 -1 3 -1 3 -1 3 -1 3 0 3 0 3 0 3 0 3 -69 0 0 -6 0 -6 1 -6 1 -6 1 -6 2 -6 2 -6 2 -6 2 -5 3 -5 3 -5 3 -5 3 -5 4 -5 4 -4 4 -4 4 -4 4 -4 5 -4 5 -3 5 -3 5 -3 5 -3 5 -2 6 -2 6 -2 6 -2 6 -1 6 -1 6 -1 6 0 6 0 0 0z"/>
   </g>
   <g>
    <path class="fil0" d="M1202 2870l69 0 0 0 0 3 0 3 0 3 0 3 1 3 1 3 1 3 1 3 1 2 1 2 1 2 1 2 2 2 2 2 2 2 2 2 2 2 2 2 2 2 2 2 2 1 2 1 2 1 2 1 3 1 3 1 3 1 3 1 3 0 3 0 3 0 3 0 0 69 -6 0 -6 0 -6 -1 -6 -1 -6 -1 -6 -2 -6 -2 -6 -2 -5 -2 -5 -3 -5 -3 -5 -3 -5 -3 -5 -4 -4 -4 -4 -4 -4 -4 -4 -4 -4 -5 -3 -5 -3 -5 -3 -5 -3 -5 -2 -5 -2 -6 -2 -6 -2 -6 -1 -6 -1 -6 -1 -6 0 -6 0 -6 0 0zm124 -124l0 69 0 0 -3 0 -3 0 -3 0 -3 0 -3 1 -3 1 -3 1 -3 1 -2 1 -2 1 -2 1 -2 1 -2 2 -2 2 -2 2 -2 2 -2 2 -2 2 -2 2 -2 2 -1 2 -1 2 -1 2 -1 2 -1 3 -1 3 -1 3 -1 3 0 3 0 3 0 3 0 3 -69 0 0 -6 0 -6 1 -6 1 -6 1 -6 2 -6 2 -6 2 -6 2 -5 3 -5 3 -5 3 -5 3 -5 4 -5 4 -4 4 -4 4 -4 4 -4 5 -4 5 -3 5 -3 5 -3 5 -3 5 -2 6 -2 6 -2 6 -2 6 -1 6 -1 6 -1 6 0 6 0 0 0zm124 124l-69 0 0 0 0 -3 0 -3 0 -3 0 -3 -1 -3 -1 -3 -1 -3 -1 -3 -1 -2 -1 -2 -1 -2 -1 -2 -2 -2 -2 -2 -2 -2 -2 -2 -2 -2 -2 -2 -2 -2 -2 -2 -2 -1 -2 -1 -2 -1 -2 -1 -3 -1 -3 -1 -3 -1 -3 -1 -3 0 -3 0 -3 0 -3 0 0 -69 6 0 6 0 6 1 6 1 6 1 6 2 6 2 6 2 5 2 5 3 5 3 5 3 5 3 5 4 4 4 4 4 4 4 4 4 4 5 3 5 3 5 3 5 3 5 2 5 2 6 2 6 2 6 1 6 1 6 1 6 0 6 0 6 0 0zm-124 124l0 -69 0 0 3 0 3 0 3 0 3 0 3 -1 3 -1 3 -1 3 -1 2 -1 2 -1 2 -1 2 -1 2 -2 2 -2 2 -2 2 -2 2 -2 2 -2 2 -2 2 -2 1 -2 1 -2 1 -2 1 -2 1 -3 1 -3 1 -3 1 -3 0 -3 0 -3 0 -3 0 -3 69 0 0 6 0 6 -1 6 -1 6 -1 6 -2 6 -2 6 -2 6 -2 5 -3 5 -3 5 -3 5 -3 5 -4 5 -4 4 -4 4 -4 4 -4 4 -5 4 -5 3 -5 3 -5 3 -5 3 -5 2 -6 2 -6 2 -6 2 -6 1 -6 1 -6 1 -6 0 -6 0 0 0z"/>
   </g>
   <path class="fil0" d="M3734 2394c-285,-372 -570,-744 -855,-1115 -33,-36 -48,-47 -106,-49 -165,0 -330,0 -495,0 -17,1 -85,3 -24,79 263,349 525,698 788,1047 35,46 34,31 -1,77 -262,349 -525,697 -787,1046 -61,76 7,78 24,79 165,0 330,0 495,0 58,-2 73,-13 106,-49 285,-372 570,-744 855,-1115z"/>
   <path class="fil0" d="M0 1230c285,-372 570,-744 855,-1115 33,-36 48,-47 106,-49 165,0 330,0 495,0 17,1 85,3 24,79 -263,349 -525,698 -788,1047 -35,46 -34,31 1,77 262,349 525,697 787,1046 61,76 -7,78 -24,79 -165,0 -330,0 -495,0 -58,-2 -73,-13 -106,-49 -285,-372 -570,-744 -855,-1115z"/>
  </g>
 </g>
</svg>
